<?xml version="1.0" encoding="UTF-8"?>
<svg xmlns="http://www.w3.org/2000/svg" viewBox="0 0 1536 1024" preserveAspectRatio="xMidYMid meet">
<g id="autotrace" fill="none" stroke="#000" stroke-width="1" stroke-linejoin="round" stroke-linecap="round">
<path d="M 192 843 L 110 842 L 167 801 L 106 843 L 23 844 L 102 846 L 42 891 L 105 845 Z"/>
<path d="M 515 789 L 1506 790 Z"/>
<path d="M 205 789 L 211 791 L 402 790 L 304 789 L 299 787 L 301 784 L 296 788 Z"/>
<path d="M 481 782 L 480 782 L 480 783 L 476 787 L 475 787 L 474 788 L 473 788 L 472 789 L 464 789 L 463 788 L 461 788 L 461 789 L 462 789 L 463 790 L 465 790 L 466 791 L 469 791 L 470 790 L 473 790 L 474 789 L 475 789 L 476 788 L 477 788 L 480 785 L 480 784 L 481 783 Z"/>
<path d="M 1099 762 L 1099 763 L 1160 763 L 1160 762 Z"/>
<path d="M 772 762 L 772 763 L 862 763 L 862 762 Z"/>
<path d="M 458 767 L 455 771 L 453 776 L 454 784 L 458 785 L 456 780 L 457 772 L 462 766 L 468 763 L 478 763 L 482 765 L 487 771 L 487 780 L 486 783 L 480 791 L 481 791 L 487 784 L 488 781 L 488 770 L 484 764 L 476 761 L 470 761 L 464 764 L 462 764 Z"/>
<path d="M 359 762 L 329 762 L 327 760 L 325 762 L 270 762 L 270 763 L 322 763 L 323 764 L 316 770 L 317 771 L 326 763 L 359 763 Z"/>
<path d="M 1269 759 L 1266 759 L 1265 760 L 1262 760 L 1261 761 L 1258 761 L 1257 762 L 1254 762 L 1253 763 L 1249 763 L 1248 764 L 1245 764 L 1244 765 L 1242 765 L 1241 766 L 1240 766 L 1240 767 L 1242 767 L 1243 766 L 1245 766 L 1246 765 L 1250 765 L 1251 764 L 1254 764 L 1255 763 L 1257 763 L 1258 762 L 1261 762 L 1262 761 L 1265 761 L 1266 760 L 1269 760 Z"/>
<path d="M 964 756 L 820 757 L 808 759 L 950 758 Z"/>
<path d="M 1210 752 L 1210 753 L 1211 753 L 1212 754 L 1213 754 L 1214 755 L 1213 756 L 1212 756 L 1212 757 L 1213 757 L 1214 758 L 1215 758 L 1216 759 L 1217 759 L 1218 760 L 1219 760 L 1220 761 L 1221 761 L 1222 762 L 1223 762 L 1224 763 L 1225 763 L 1226 764 L 1227 764 L 1227 763 L 1226 763 L 1225 762 L 1224 762 L 1223 761 L 1222 761 L 1221 760 L 1220 760 L 1219 759 L 1220 758 L 1221 758 L 1221 757 L 1220 757 L 1219 756 L 1218 756 L 1217 755 L 1216 755 L 1215 754 L 1214 754 L 1213 753 L 1212 753 L 1211 752 Z"/>
<path d="M 490 751 L 491 750 L 492 750 L 493 751 L 495 751 L 498 753 L 500 753 L 501 754 L 503 754 L 510 758 L 512 758 L 513 759 L 515 759 L 516 760 L 518 760 L 519 761 L 519 763 L 520 764 L 521 767 L 524 770 L 524 771 L 525 772 L 524 773 L 522 773 L 521 772 L 519 772 L 518 771 L 517 771 L 510 767 L 508 767 L 505 765 L 503 765 L 502 764 L 499 763 L 497 761 L 497 759 L 495 757 L 495 756 Z"/>
<path d="M 546 741 L 544 741 L 543 742 L 541 742 L 538 745 L 538 746 L 537 747 L 537 748 L 536 749 L 536 751 L 537 752 L 537 754 L 538 755 L 538 756 L 539 757 L 540 757 L 541 756 L 543 756 L 543 755 L 540 755 L 538 753 L 538 752 L 537 751 L 537 750 L 538 749 L 538 748 L 541 745 L 543 745 L 544 744 L 545 744 L 548 747 L 548 750 L 549 750 L 549 747 L 548 746 L 548 745 L 546 743 Z"/>
<path d="M 1403 742 L 1402 741 L 1402 740 L 1401 740 L 1400 741 L 1398 741 L 1397 742 L 1395 742 L 1394 743 L 1392 743 L 1389 745 L 1387 745 L 1386 746 L 1384 746 L 1383 747 L 1381 747 L 1380 748 L 1378 748 L 1377 749 L 1376 749 L 1376 750 L 1377 750 L 1378 749 L 1380 749 L 1381 748 L 1382 748 L 1383 749 L 1383 750 L 1384 750 L 1384 749 L 1383 748 L 1384 747 L 1385 747 L 1386 748 L 1386 749 L 1387 749 L 1387 748 L 1386 747 L 1387 746 L 1388 746 L 1389 747 L 1389 748 L 1390 748 L 1391 747 L 1392 747 L 1395 745 L 1397 745 L 1398 744 L 1400 744 L 1401 743 L 1403 743 Z"/>
<path d="M 362 739 L 363 738 L 389 755 L 398 759 L 401 764 L 404 763 L 440 785 L 442 784 L 449 798 L 447 799 L 400 768 L 364 747 L 362 745 Z"/>
<path d="M 544 735 L 537 738 L 532 743 L 531 747 L 530 748 L 530 753 L 532 757 L 537 762 L 539 762 L 540 763 L 549 763 L 554 760 L 555 758 L 548 762 L 541 762 L 537 760 L 534 757 L 534 755 L 532 751 L 532 748 L 535 742 L 538 739 L 542 737 L 545 737 L 546 736 L 548 736 L 549 737 L 553 738 L 552 736 L 550 736 L 549 735 Z"/>
<path d="M 116 733 L 117 734 L 117 742 L 116 743 L 114 743 L 113 744 L 112 744 L 111 745 L 110 745 L 109 746 L 108 746 L 107 747 L 106 747 L 105 748 L 104 748 L 103 747 L 104 746 L 104 744 L 103 743 L 103 742 L 106 739 L 107 739 L 108 738 L 109 738 L 110 737 L 111 737 L 112 736 L 113 736 Z"/>
<path d="M 997 733 L 998 733 L 999 732 L 1001 732 L 1002 733 L 1003 733 L 1004 734 L 1005 734 L 1008 737 L 1008 741 L 1009 742 L 1009 745 L 1010 746 L 1010 749 L 1011 750 L 1011 752 L 1010 753 L 1009 752 L 1006 752 L 1005 751 L 1002 751 L 1001 750 L 1000 750 L 994 744 L 994 742 L 993 741 L 993 739 L 994 738 L 994 736 Z"/>
<path d="M 901 730 L 901 731 L 927 731 L 928 732 L 930 732 L 931 731 L 933 732 L 935 732 L 936 731 L 965 731 L 965 730 Z"/>
<path d="M 553 729 L 558 733 L 559 733 L 564 740 L 564 743 L 565 744 L 565 750 L 564 751 L 564 754 L 560 762 L 556 766 L 552 768 L 544 769 L 543 770 L 537 769 L 533 767 L 529 763 L 526 757 L 526 746 L 531 738 L 538 731 L 542 730 L 543 729 L 547 729 L 548 728 L 550 729 Z"/>
<path d="M 544 727 L 535 731 L 532 734 L 526 743 L 526 745 L 524 749 L 524 753 L 525 754 L 526 761 L 533 769 L 537 770 L 540 772 L 549 772 L 556 768 L 563 760 L 566 753 L 566 741 L 563 735 L 557 729 L 552 727 Z"/>
<path d="M 991 727 L 995 725 L 1007 725 L 1008 726 L 1008 732 L 1007 733 L 1005 733 L 1002 731 L 998 731 L 996 732 L 992 737 L 992 742 L 994 746 L 998 750 L 1004 753 L 1009 753 L 1010 754 L 1012 754 L 1015 760 L 1014 761 L 1001 759 L 995 756 L 989 751 L 986 745 L 986 734 L 988 730 Z"/>
<path d="M 1009 734 L 1010 723 L 1023 728 L 1039 730 L 1070 730 L 1088 727 L 1097 723 L 1099 724 L 1096 743 L 1090 760 L 1078 770 L 1061 774 L 1038 773 L 1023 767 L 1014 754 Z"/>
<path d="M 1166 729 L 1198 721 L 1213 720 L 1299 760 L 1300 768 L 1259 779 L 1247 779 L 1166 734 L 1167 731 L 1189 744 L 1207 750 Z"/>
<path d="M 1164 730 L 1164 736 L 1169 740 L 1248 782 L 1274 780 L 1304 771 L 1301 769 L 1302 761 L 1299 758 L 1211 718 L 1167 726 Z"/>
<path d="M 1127 710 L 1127 711 L 1141 711 L 1142 712 L 1144 712 L 1145 711 L 1164 711 L 1164 710 Z"/>
<path d="M 1008 719 L 1012 715 L 1021 712 L 1044 709 L 1057 709 L 1077 711 L 1091 714 L 1096 716 L 1099 720 L 1091 724 L 1090 723 L 1093 720 L 1088 717 L 1086 718 L 1085 716 L 1082 720 L 1079 719 L 1081 717 L 1077 716 L 1069 716 L 1068 718 L 1061 717 L 1040 717 L 1039 718 L 1038 716 L 1035 715 L 1014 719 L 1015 722 L 1014 723 L 1010 722 Z"/>
<path d="M 984 736 L 985 747 L 992 756 L 1006 762 L 1015 763 L 1019 767 L 1000 767 L 999 769 L 1043 779 L 1068 779 L 1105 770 L 1087 767 L 1092 762 L 1097 750 L 1101 719 L 1099 716 L 1086 711 L 1067 708 L 1040 708 L 1020 711 L 1008 716 L 1006 724 L 990 726 Z"/>
<path d="M 1331 703 L 1329 703 L 1328 704 L 1325 704 L 1324 705 L 1321 705 L 1320 706 L 1318 706 L 1314 708 L 1307 709 L 1306 710 L 1301 711 L 1298 713 L 1296 713 L 1295 714 L 1292 714 L 1289 716 L 1284 717 L 1282 718 L 1282 719 L 1284 718 L 1287 718 L 1288 717 L 1290 717 L 1294 715 L 1297 715 L 1301 713 L 1304 713 L 1307 711 L 1310 711 L 1313 709 L 1316 709 L 1319 707 L 1321 707 L 1322 706 L 1325 706 L 1326 705 L 1331 704 Z"/>
<path d="M 331 704 L 343 695 L 355 694 L 428 729 L 480 748 L 473 750 L 481 748 L 497 765 L 492 791 L 477 803 L 463 805 L 453 801 L 445 787 L 447 776 L 456 796 L 469 801 L 482 795 L 458 795 L 448 772 L 465 755 L 485 756 L 469 753 L 456 758 L 442 783 L 402 758 L 401 751 L 399 757 L 362 734 L 368 717 L 359 732 L 332 718 L 357 735 L 360 744 L 334 729 L 328 717 Z"/>
<path d="M 483 677 L 483 678 L 484 678 L 485 679 L 487 679 L 488 680 L 490 680 L 493 682 L 495 682 L 498 684 L 500 684 L 501 685 L 503 685 L 504 686 L 509 687 L 512 689 L 514 689 L 515 690 L 518 690 L 519 691 L 522 691 L 523 692 L 528 693 L 528 692 L 526 692 L 523 690 L 518 689 L 515 687 L 513 687 L 512 686 L 509 686 L 506 684 L 504 684 L 503 683 L 501 683 L 500 682 L 498 682 L 497 681 L 495 681 L 494 680 L 492 680 L 491 679 L 488 679 L 487 678 L 485 678 L 484 677 Z"/>
<path d="M 368 686 L 377 676 L 393 673 L 433 686 L 432 689 L 439 688 L 548 720 L 547 723 L 554 723 L 566 732 L 570 742 L 568 758 L 556 773 L 534 776 L 520 760 L 521 745 L 527 734 L 520 743 L 517 759 L 466 734 L 472 716 L 465 731 L 459 732 L 440 723 L 444 711 L 438 722 L 413 712 L 412 706 L 420 694 L 408 710 L 381 698 L 368 698 Z"/>
<path d="M 762 671 L 752 672 L 751 673 L 736 675 L 735 676 L 730 676 L 724 678 L 717 678 L 716 679 L 710 678 L 708 681 L 690 684 L 690 685 L 694 685 L 710 681 L 716 681 L 729 685 L 729 684 L 718 681 L 717 680 L 718 679 L 724 679 L 730 677 L 741 676 L 752 673 L 762 672 Z"/>
<path d="M 318 722 L 327 723 L 335 735 L 362 749 L 382 766 L 387 764 L 400 772 L 397 775 L 415 787 L 423 787 L 412 790 L 427 790 L 459 807 L 486 801 L 498 785 L 500 766 L 519 774 L 518 777 L 543 780 L 564 770 L 572 754 L 570 734 L 549 718 L 392 670 L 374 675 L 363 696 L 350 691 L 334 697 L 327 707 L 327 721 Z"/>
<path d="M 1059 667 L 1060 669 L 1064 670 L 1176 670 L 1178 669 L 1178 668 L 1065 669 Z"/>
<path d="M 788 669 L 787 669 L 786 668 L 786 667 L 779 667 L 778 666 L 776 666 L 776 667 L 774 669 L 769 669 L 768 670 L 764 670 L 764 671 L 768 671 L 769 670 L 774 670 L 775 669 L 777 669 L 778 668 L 781 668 L 782 669 L 786 669 L 787 670 L 788 670 Z"/>
<path d="M 983 668 L 983 690 L 685 758 L 686 726 L 980 664 Z"/>
<path d="M 1072 655 L 1072 656 L 1173 656 L 1180 660 L 1173 655 Z"/>
<path d="M 897 653 L 893 656 L 883 656 L 884 659 L 883 660 L 875 660 L 874 661 L 868 661 L 867 662 L 861 662 L 860 663 L 857 663 L 856 661 L 853 661 L 852 664 L 848 664 L 847 663 L 843 664 L 842 662 L 833 659 L 826 660 L 823 656 L 825 654 L 833 655 L 834 653 L 840 654 L 841 656 L 844 655 L 846 658 L 849 658 L 850 657 L 860 656 L 861 655 L 868 655 L 869 654 L 881 654 L 882 653 L 890 653 L 891 652 L 896 652 Z"/>
<path d="M 580 655 L 584 656 L 584 661 L 588 660 L 610 666 L 605 667 L 587 663 L 587 665 L 591 667 L 615 672 L 626 672 L 626 674 L 618 675 L 646 673 L 664 668 L 659 666 L 661 664 L 660 662 L 652 660 L 651 663 L 631 668 L 654 663 L 658 664 L 654 667 L 628 671 L 627 668 L 589 660 L 585 657 L 586 655 L 584 653 Z"/>
<path d="M 590 654 L 590 655 L 593 655 L 594 654 L 595 654 L 596 655 L 600 655 L 601 656 L 604 656 L 605 657 L 607 657 L 610 659 L 617 659 L 620 661 L 625 661 L 626 662 L 627 662 L 627 661 L 626 661 L 625 660 L 621 660 L 620 659 L 618 659 L 617 658 L 614 658 L 613 657 L 610 657 L 609 656 L 607 656 L 606 655 L 603 655 L 602 654 L 597 654 L 594 652 L 593 652 Z"/>
<path d="M 1230 646 L 1228 646 L 1227 645 L 1227 644 L 1220 644 L 1220 645 L 1219 646 L 1196 646 L 1196 647 L 1224 647 L 1224 646 L 1225 645 L 1226 646 L 1226 647 L 1230 647 Z"/>
<path d="M 1134 644 L 1134 645 L 1153 645 L 1154 646 L 1154 647 L 1176 647 L 1176 646 L 1169 646 L 1168 645 L 1168 644 L 1166 644 L 1166 645 L 1165 646 L 1164 645 L 1164 644 Z"/>
<path d="M 1060 647 L 1124 647 L 1125 645 L 1128 645 L 1128 644 L 1124 644 L 1123 646 L 1108 646 L 1106 644 L 1087 644 L 1086 646 L 1081 646 L 1080 644 L 1078 644 L 1077 646 L 1073 646 L 1071 644 L 1068 643 L 1067 645 L 1060 645 Z"/>
<path d="M 407 641 L 683 726 L 683 758 L 403 664 Z"/>
<path d="M 442 641 L 686 712 L 945 661 L 687 711 L 593 679 Z"/>
<path d="M 1120 639 L 1120 640 L 1172 640 L 1172 639 Z"/>
<path d="M 1071 639 L 1071 640 L 1113 640 L 1113 639 Z"/>
<path d="M 970 639 L 970 640 L 1045 641 L 1046 642 L 1044 644 L 1038 644 L 1038 645 L 1040 647 L 1045 647 L 1046 645 L 1048 645 L 1050 647 L 1050 644 L 1045 639 Z"/>
<path d="M 1269 651 L 1240 638 L 1183 640 L 1241 639 L 1248 644 L 1232 647 L 1255 645 L 1266 651 L 971 652 Z"/>
<path d="M 460 640 L 465 641 L 482 638 L 483 639 L 481 641 L 504 648 L 507 647 L 498 645 L 498 643 L 521 647 L 521 649 L 510 650 L 539 649 L 544 645 L 548 645 L 539 643 L 538 645 L 524 644 L 521 646 L 520 645 L 522 643 L 505 640 L 505 638 L 511 637 L 505 637 L 503 639 L 503 634 L 500 634 L 502 636 L 500 637 L 501 641 L 486 638 L 498 636 L 482 636 Z"/>
<path d="M 946 632 L 1257 634 Z"/>
<path d="M 200 801 L 252 816 L 252 953 L 254 816 L 284 817 L 285 958 L 288 815 L 369 816 L 370 916 L 394 815 L 395 917 L 398 815 L 1273 815 L 1274 923 L 1275 816 L 1298 816 L 1300 923 L 1300 817 L 1378 815 L 1379 953 L 1382 815 L 1411 817 L 1411 944 L 1413 816 L 1521 815 L 204 813 L 445 616 Z"/>
<path d="M 488 619 L 489 618 L 491 618 L 494 615 L 495 615 L 496 614 L 503 614 L 505 616 L 505 617 L 506 618 L 506 625 L 505 626 L 499 626 L 498 627 L 492 627 L 491 626 L 491 622 L 490 622 L 490 626 L 489 627 L 488 626 Z"/>
<path d="M 857 610 L 863 619 L 872 618 L 874 620 L 874 630 L 876 624 L 877 630 L 880 629 L 892 631 L 897 629 L 905 629 L 910 635 L 919 635 L 920 636 L 918 641 L 922 637 L 922 632 L 920 630 L 919 634 L 912 633 L 910 631 L 916 625 L 914 620 L 912 620 L 914 624 L 909 628 L 907 626 L 894 626 L 892 628 L 892 625 L 887 628 L 885 626 L 879 627 L 878 623 L 888 615 L 894 616 L 891 614 L 893 611 L 882 618 L 877 619 L 872 615 L 865 617 L 859 610 Z"/>
<path d="M 358 626 L 349 626 L 348 625 L 318 625 L 317 624 L 342 609 L 341 608 L 312 626 L 305 626 L 305 627 L 309 628 L 305 630 L 305 631 L 310 629 L 312 627 L 358 627 Z"/>
<path d="M 449 618 L 458 612 L 462 613 L 458 608 L 458 606 L 461 603 L 465 602 L 471 606 L 475 607 L 477 609 L 477 611 L 479 608 L 478 606 L 480 605 L 487 610 L 486 616 L 480 613 L 487 619 L 487 627 L 486 628 L 484 626 L 483 628 L 481 628 L 480 625 L 465 619 L 468 622 L 474 624 L 478 628 L 471 630 L 462 629 L 457 631 L 452 629 L 451 625 L 449 624 L 450 623 L 458 624 L 459 622 L 452 622 L 449 620 Z"/>
<path d="M 594 596 L 594 606 L 593 607 L 593 620 L 594 621 L 594 624 L 595 625 L 601 625 L 601 624 L 596 624 L 595 623 L 595 596 Z"/>
<path d="M 1380 594 L 1381 595 L 1381 596 L 1377 600 L 1377 601 L 1376 602 L 1376 604 L 1375 605 L 1375 606 L 1374 607 L 1372 607 L 1371 606 L 1372 605 L 1372 603 L 1373 602 L 1373 601 L 1377 597 L 1377 596 L 1379 594 Z"/>
<path d="M 756 594 L 768 594 L 769 595 L 769 625 L 768 626 L 756 626 L 755 625 L 755 595 Z"/>
<path d="M 616 594 L 614 596 L 608 596 L 608 610 L 609 610 L 609 598 L 610 597 L 617 597 L 618 598 L 618 625 L 615 626 L 606 624 L 606 596 L 602 596 L 602 597 L 605 598 L 605 624 L 604 626 L 619 627 L 619 596 L 617 596 Z"/>
<path d="M 412 596 L 366 596 L 366 594 L 372 592 L 382 585 L 381 584 L 362 596 L 306 595 L 303 597 L 357 597 L 358 598 L 349 603 L 350 604 L 361 597 Z"/>
<path d="M 859 595 L 859 599 L 862 600 L 863 604 L 868 607 L 866 609 L 869 613 L 869 609 L 867 608 L 869 606 L 862 600 L 861 597 L 864 594 L 870 596 L 873 589 L 877 585 L 881 584 L 887 589 L 887 591 L 890 591 L 893 595 L 893 597 L 888 601 L 888 603 L 892 601 L 900 601 L 903 604 L 903 609 L 897 615 L 901 613 L 907 613 L 912 618 L 914 618 L 911 613 L 904 611 L 906 607 L 905 602 L 902 599 L 895 599 L 894 591 L 883 582 L 876 583 L 868 592 L 863 592 Z"/>
<path d="M 1132 581 L 1130 590 L 1104 590 L 1103 575 L 1101 575 L 1102 585 L 1100 590 L 1073 590 L 1071 577 L 1065 578 L 1065 581 L 1067 579 L 1071 580 L 1070 590 L 1068 590 L 1067 587 L 1065 590 L 1061 590 L 1059 581 L 1058 590 L 1042 589 L 1038 591 L 1132 591 Z"/>
<path d="M 686 572 L 687 573 L 687 606 L 685 607 L 685 608 L 687 609 L 687 636 L 686 637 L 681 637 L 680 638 L 679 637 L 679 573 L 680 572 Z"/>
<path d="M 651 572 L 651 599 L 650 600 L 646 600 L 646 601 L 650 601 L 651 602 L 652 602 L 652 572 Z"/>
<path d="M 1064 571 L 1063 571 L 1062 572 L 1061 571 L 1061 570 L 1060 570 L 1060 571 L 1059 572 L 1042 572 L 1042 586 L 1045 586 L 1045 585 L 1044 585 L 1043 584 L 1043 574 L 1044 573 L 1064 573 Z"/>
<path d="M 1290 569 L 1294 567 L 1302 567 L 1303 566 L 1315 566 L 1316 567 L 1320 567 L 1321 568 L 1323 568 L 1324 569 L 1326 569 L 1327 570 L 1329 570 L 1336 573 L 1337 574 L 1336 575 L 1334 575 L 1334 576 L 1339 576 L 1346 581 L 1345 582 L 1339 582 L 1338 583 L 1334 583 L 1333 584 L 1329 584 L 1328 585 L 1321 585 L 1320 584 L 1317 584 L 1316 583 L 1311 582 L 1304 578 L 1302 578 L 1300 576 L 1292 572 L 1290 570 Z"/>
<path d="M 717 565 L 726 565 L 727 566 L 727 597 L 728 597 L 728 566 L 729 565 L 739 565 L 740 566 L 740 603 L 739 604 L 717 604 L 716 603 L 716 566 Z"/>
<path d="M 633 565 L 655 565 L 656 566 L 656 572 L 655 573 L 655 604 L 654 605 L 652 604 L 636 604 L 632 602 L 635 600 L 634 598 L 634 595 L 632 594 L 632 583 L 633 582 L 633 576 L 632 575 L 632 566 Z"/>
<path d="M 1379 564 L 1380 565 L 1380 566 L 1378 569 L 1378 571 L 1377 572 L 1376 577 L 1374 580 L 1374 585 L 1377 588 L 1381 588 L 1382 589 L 1378 593 L 1375 594 L 1375 595 L 1376 596 L 1372 599 L 1372 600 L 1369 604 L 1368 603 L 1368 597 L 1370 595 L 1370 594 L 1369 593 L 1369 578 L 1370 577 L 1370 575 L 1371 574 L 1372 571 L 1374 569 L 1374 568 L 1378 564 Z"/>
<path d="M 586 565 L 586 625 L 585 626 L 574 625 L 574 626 L 588 628 L 587 626 L 587 565 Z"/>
<path d="M 804 563 L 813 563 L 814 564 L 814 594 L 815 594 L 815 564 L 816 563 L 826 563 L 827 564 L 826 567 L 826 598 L 825 599 L 805 599 L 804 600 L 803 599 L 803 570 L 804 569 L 803 564 Z"/>
<path d="M 756 562 L 768 562 L 769 563 L 769 589 L 768 590 L 756 590 L 755 589 L 755 563 Z"/>
<path d="M 1351 560 L 1350 561 L 1350 564 L 1351 565 L 1351 567 L 1352 568 L 1352 569 L 1353 570 L 1353 571 L 1356 574 L 1356 575 L 1359 578 L 1359 579 L 1360 580 L 1360 581 L 1361 582 L 1362 582 L 1362 581 L 1361 580 L 1361 578 L 1360 577 L 1360 569 L 1359 568 L 1359 565 L 1358 565 L 1358 570 L 1359 571 L 1359 572 L 1358 573 L 1354 569 L 1354 568 L 1353 567 L 1353 561 L 1352 560 Z"/>
<path d="M 551 560 L 573 562 L 551 563 L 551 600 L 574 600 L 552 598 L 552 565 L 570 565 L 571 597 L 571 565 L 573 565 L 574 594 L 574 561 Z"/>
<path d="M 794 554 L 795 628 L 791 626 L 792 560 L 755 560 L 753 629 L 788 626 L 774 624 L 776 593 L 771 626 L 770 593 L 755 592 L 770 591 L 771 561 L 776 591 L 774 563 L 788 565 L 789 560 L 790 628 L 751 632 L 750 556 Z"/>
<path d="M 302 566 L 336 567 L 316 579 L 341 567 L 461 567 L 346 566 L 368 551 L 341 566 Z"/>
<path d="M 1140 548 L 1142 548 L 1143 549 L 1143 577 L 1142 578 L 1138 578 L 1136 576 L 1136 575 L 1137 574 L 1140 574 L 1140 573 L 1137 573 L 1136 572 L 1137 571 L 1140 571 L 1140 570 L 1138 570 L 1137 569 L 1137 552 L 1138 551 L 1140 551 L 1140 550 L 1139 549 Z"/>
<path d="M 677 547 L 677 552 L 676 553 L 666 553 L 664 551 L 664 549 L 665 548 L 668 548 L 668 547 L 669 546 L 670 546 L 671 547 L 672 547 L 673 548 L 674 548 L 674 546 L 675 545 Z"/>
<path d="M 1152 544 L 1120 553 L 1121 554 L 1133 550 L 1136 551 L 1136 570 L 1134 571 L 1134 574 L 1136 577 L 1136 581 L 1138 579 L 1143 580 L 1143 591 L 1144 591 L 1145 573 L 1158 573 L 1159 582 L 1160 582 L 1160 559 L 1159 559 L 1158 572 L 1144 571 L 1144 549 L 1143 548 Z"/>
<path d="M 1385 558 L 1398 551 L 1416 551 L 1416 550 L 1404 549 L 1395 551 L 1386 556 L 1385 554 L 1392 547 L 1402 542 L 1416 542 L 1417 543 L 1432 545 L 1441 550 L 1439 552 L 1432 554 L 1421 555 L 1408 558 L 1389 558 L 1388 559 Z"/>
<path d="M 351 549 L 351 548 L 320 548 L 319 547 L 320 546 L 330 541 L 332 541 L 334 540 L 334 539 L 330 540 L 319 546 L 316 546 L 315 547 L 306 547 L 306 548 L 311 548 L 312 549 L 316 549 L 317 548 L 318 549 Z"/>
<path d="M 684 537 L 686 539 L 686 544 L 687 545 L 687 570 L 686 571 L 680 571 L 679 570 L 679 546 L 680 545 L 680 540 L 682 538 L 683 538 Z"/>
<path d="M 855 531 L 856 530 L 857 530 L 860 533 L 862 533 L 865 536 L 864 537 L 856 537 L 855 536 Z"/>
<path d="M 1358 530 L 1357 531 L 1357 534 L 1358 535 L 1358 537 L 1359 538 L 1359 539 L 1360 540 L 1362 540 L 1365 537 L 1365 536 L 1364 535 L 1364 534 L 1363 533 L 1362 533 L 1360 531 L 1360 530 Z"/>
<path d="M 1297 526 L 1302 524 L 1333 524 L 1337 525 L 1348 532 L 1352 538 L 1355 546 L 1354 547 L 1344 537 L 1328 531 L 1325 531 L 1325 532 L 1335 534 L 1344 539 L 1351 545 L 1350 546 L 1333 545 L 1320 542 L 1303 533 Z"/>
<path d="M 832 521 L 833 523 L 836 525 L 840 525 L 842 523 L 846 527 L 852 530 L 852 544 L 853 545 L 853 549 L 852 550 L 845 550 L 845 551 L 852 551 L 853 552 L 853 554 L 852 555 L 852 567 L 851 568 L 833 568 L 832 567 L 832 551 L 831 550 L 831 522 Z"/>
<path d="M 1082 530 L 1082 529 L 1081 529 L 1080 528 L 1081 527 L 1082 527 L 1082 526 L 1081 526 L 1080 527 L 1076 527 L 1075 526 L 1075 525 L 1074 525 L 1073 524 L 1074 523 L 1075 523 L 1076 522 L 1076 521 L 1075 521 L 1072 523 L 1070 523 L 1069 524 L 1066 524 L 1063 526 L 1061 526 L 1060 527 L 1058 527 L 1058 528 L 1062 528 L 1064 526 L 1066 526 L 1067 525 L 1070 525 L 1071 526 L 1071 529 L 1075 529 L 1076 528 L 1080 528 L 1081 529 L 1080 530 L 1079 530 L 1079 531 Z"/>
<path d="M 598 522 L 598 523 L 599 523 L 600 524 L 602 524 L 603 523 L 622 523 L 622 522 L 608 522 L 607 521 L 605 521 L 604 522 Z"/>
<path d="M 440 522 L 440 523 L 450 523 L 451 524 L 472 524 L 473 523 L 495 523 L 495 522 L 466 522 L 465 521 L 462 521 L 461 522 Z"/>
<path d="M 540 521 L 540 522 L 543 522 L 544 523 L 545 523 L 546 522 L 564 522 L 565 523 L 567 523 L 568 522 L 578 522 L 578 521 L 573 521 L 572 520 L 571 520 L 570 521 L 552 521 L 551 520 L 549 520 L 548 521 Z"/>
<path d="M 1121 518 L 1121 519 L 1122 519 L 1125 521 L 1127 521 L 1128 522 L 1130 522 L 1131 523 L 1132 523 L 1135 526 L 1135 527 L 1137 529 L 1137 532 L 1138 532 L 1139 533 L 1140 533 L 1140 532 L 1139 531 L 1139 528 L 1138 528 L 1137 527 L 1138 526 L 1140 526 L 1141 527 L 1144 527 L 1145 528 L 1147 528 L 1148 529 L 1149 529 L 1149 528 L 1148 528 L 1147 527 L 1145 527 L 1144 526 L 1142 526 L 1141 525 L 1140 525 L 1137 523 L 1134 523 L 1133 522 L 1131 522 L 1130 521 L 1128 521 L 1125 519 L 1123 519 L 1122 518 Z"/>
<path d="M 760 512 L 760 524 L 771 524 L 771 523 L 762 523 L 761 522 L 761 515 L 762 514 L 766 514 L 767 513 L 773 513 L 774 514 L 775 514 L 775 513 L 774 512 L 763 512 L 762 513 L 761 512 Z"/>
<path d="M 1187 511 L 1187 512 L 1188 513 L 1188 518 L 1189 519 L 1189 521 L 1192 523 L 1200 523 L 1201 524 L 1202 524 L 1203 523 L 1213 523 L 1213 522 L 1203 522 L 1202 521 L 1203 520 L 1203 516 L 1202 515 L 1201 515 L 1201 521 L 1200 522 L 1199 521 L 1198 521 L 1197 522 L 1194 522 L 1191 520 L 1191 518 L 1190 517 L 1190 511 Z"/>
<path d="M 1078 520 L 1091 520 L 1092 521 L 1087 524 L 1088 525 L 1093 522 L 1090 518 L 1101 515 L 1102 522 L 1097 525 L 1105 524 L 1113 528 L 1113 547 L 1110 548 L 1112 550 L 1111 553 L 1114 553 L 1121 547 L 1125 549 L 1124 541 L 1122 546 L 1115 550 L 1113 549 L 1115 546 L 1114 526 L 1103 522 L 1104 514 L 1114 517 L 1115 521 L 1112 523 L 1116 525 L 1116 519 L 1119 517 L 1104 513 L 1102 511 L 1099 514 Z"/>
<path d="M 696 512 L 687 512 L 686 511 L 685 511 L 684 512 L 667 512 L 667 513 L 681 513 L 682 514 L 683 514 L 684 513 L 696 513 Z"/>
<path d="M 1005 593 L 1034 591 L 1032 556 L 1032 589 L 1026 589 L 1027 536 L 1031 545 L 1038 541 L 1037 586 L 1040 541 L 1042 570 L 1044 543 L 1060 548 L 1060 563 L 1062 548 L 1099 559 L 1118 555 L 1090 555 L 1098 547 L 1091 543 L 1088 554 L 1049 544 L 1052 539 L 1045 539 L 1056 528 L 1046 531 L 1044 541 L 1029 536 L 1105 509 L 1175 536 L 1154 543 L 1172 540 L 1172 588 L 1177 537 L 1178 589 L 1170 591 L 1203 594 Z"/>
<path d="M 665 510 L 664 510 L 663 511 L 662 511 L 661 512 L 657 512 L 656 511 L 652 511 L 651 512 L 647 512 L 646 511 L 642 511 L 642 512 L 645 512 L 646 513 L 646 514 L 647 514 L 648 513 L 652 513 L 653 512 L 656 512 L 657 513 L 658 513 L 659 514 L 659 515 L 660 515 L 662 513 L 664 513 L 665 512 Z"/>
<path d="M 584 510 L 584 511 L 585 511 L 586 512 L 612 512 L 612 511 L 611 510 L 610 510 L 609 511 L 587 511 L 586 510 Z"/>
<path d="M 976 509 L 976 584 L 977 584 L 977 509 Z"/>
<path d="M 987 591 L 1003 594 L 987 596 L 1096 598 L 1100 601 L 1159 598 L 1160 602 L 1165 598 L 1218 597 L 1204 594 L 1217 591 L 1179 586 L 1178 535 L 1140 521 L 1142 517 L 1135 519 L 1103 507 L 1025 535 L 1025 589 L 1013 590 L 1020 588 L 1020 584 L 1010 586 L 1010 591 Z"/>
<path d="M 1209 504 L 1210 504 L 1211 503 L 1213 503 L 1214 504 L 1215 504 L 1218 507 L 1218 510 L 1217 511 L 1217 512 L 1216 513 L 1212 513 L 1209 510 L 1208 510 L 1207 509 L 1207 507 L 1208 506 L 1208 505 Z"/>
<path d="M 996 503 L 993 509 L 995 510 L 996 513 L 995 518 L 997 517 L 999 519 L 1008 518 L 1010 513 L 1007 515 L 1003 514 L 1004 516 L 1003 518 L 998 517 L 996 507 L 998 504 L 1016 504 L 1017 505 L 1017 521 L 1016 522 L 992 522 L 992 523 L 1004 523 L 1007 525 L 1009 523 L 1016 524 L 1018 522 L 1018 504 L 1017 503 Z"/>
<path d="M 1209 502 L 1206 505 L 1206 506 L 1205 507 L 1205 509 L 1206 510 L 1206 511 L 1207 511 L 1210 514 L 1211 514 L 1212 515 L 1216 515 L 1219 512 L 1219 506 L 1218 505 L 1218 504 L 1217 503 L 1216 503 L 1215 502 Z"/>
<path d="M 788 502 L 787 502 L 787 522 L 786 523 L 777 523 L 777 524 L 788 524 Z"/>
<path d="M 689 502 L 681 502 L 680 501 L 678 501 L 677 502 L 648 502 L 648 503 L 673 503 L 674 504 L 676 504 L 679 502 L 680 503 L 689 503 Z"/>
<path d="M 1226 500 L 1226 568 L 1227 568 L 1227 500 Z"/>
<path d="M 1113 500 L 1113 501 L 1153 501 L 1153 500 Z"/>
<path d="M 756 501 L 758 499 L 760 500 L 759 502 L 764 501 L 765 499 L 781 499 L 782 501 L 785 501 L 786 499 L 789 499 L 790 500 L 790 525 L 789 526 L 758 526 L 757 525 L 757 510 L 756 509 Z"/>
<path d="M 298 506 L 320 506 L 322 507 L 323 506 L 329 506 L 335 502 L 340 507 L 341 507 L 340 505 L 341 504 L 347 504 L 351 507 L 349 509 L 342 509 L 342 510 L 350 510 L 354 505 L 361 505 L 362 504 L 366 504 L 366 503 L 343 503 L 342 502 L 336 502 L 333 499 L 330 499 L 330 500 L 333 501 L 329 505 L 298 505 Z"/>
<path d="M 755 499 L 755 527 L 757 528 L 791 527 L 792 523 L 819 523 L 819 522 L 792 522 L 791 521 L 791 499 L 790 498 L 756 498 Z"/>
<path d="M 1383 495 L 1386 498 L 1385 499 L 1385 502 L 1384 503 L 1384 505 L 1383 506 L 1383 507 L 1382 508 L 1382 509 L 1381 510 L 1381 511 L 1380 512 L 1379 511 L 1379 509 L 1380 508 L 1380 504 L 1381 503 L 1381 501 L 1380 500 L 1380 498 Z"/>
<path d="M 1045 498 L 1048 495 L 1051 495 L 1054 498 L 1054 501 L 1052 503 L 1051 503 L 1050 504 L 1048 504 L 1045 501 Z"/>
<path d="M 1426 495 L 1426 497 L 1425 498 L 1425 500 L 1423 504 L 1421 506 L 1421 507 L 1413 515 L 1412 515 L 1409 518 L 1408 518 L 1403 522 L 1398 524 L 1396 526 L 1394 526 L 1388 531 L 1386 532 L 1385 531 L 1384 528 L 1385 527 L 1386 522 L 1389 516 L 1397 508 L 1403 505 L 1411 499 L 1421 494 L 1425 494 Z"/>
<path d="M 335 495 L 336 494 L 353 494 L 354 495 L 353 496 L 344 496 L 343 497 L 339 497 L 338 496 L 336 496 Z"/>
<path d="M 146 496 L 148 494 L 149 494 L 150 495 L 153 495 L 154 496 L 162 496 L 165 494 L 170 494 L 171 495 L 184 495 L 187 497 L 187 499 L 186 500 L 181 500 L 180 501 L 166 501 L 163 498 L 162 498 L 159 501 L 147 501 L 146 500 Z"/>
<path d="M 1048 493 L 1047 494 L 1046 494 L 1044 496 L 1044 497 L 1043 498 L 1043 501 L 1044 502 L 1044 503 L 1046 505 L 1048 505 L 1049 506 L 1051 506 L 1052 505 L 1053 505 L 1056 502 L 1056 501 L 1057 500 L 1057 499 L 1056 498 L 1056 497 L 1054 495 L 1054 494 L 1052 494 L 1051 493 Z"/>
<path d="M 686 495 L 686 497 L 688 497 L 689 496 L 708 496 L 709 497 L 710 497 L 710 496 L 709 495 L 694 495 L 693 494 L 693 493 L 692 493 L 691 494 L 688 494 L 687 495 Z"/>
<path d="M 325 496 L 325 497 L 327 497 L 328 496 L 333 496 L 336 498 L 345 498 L 346 497 L 357 497 L 358 496 L 361 496 L 362 498 L 367 498 L 369 497 L 369 496 L 362 496 L 359 494 L 361 493 L 361 492 L 358 493 L 356 495 L 354 495 L 353 494 L 354 492 L 352 492 L 351 493 L 344 493 L 343 491 L 341 492 L 333 492 L 332 491 L 330 491 L 330 492 L 331 492 L 333 494 L 332 495 L 328 495 L 327 496 Z"/>
<path d="M 141 531 L 142 533 L 149 533 L 150 524 L 238 516 L 150 523 L 151 502 L 188 502 L 190 496 L 185 493 L 151 494 L 149 486 L 149 491 L 145 493 L 145 503 L 148 504 L 148 530 L 143 531 L 145 520 L 142 520 Z"/>
<path d="M 1345 484 L 1357 490 L 1367 500 L 1367 501 L 1370 504 L 1374 512 L 1374 520 L 1373 521 L 1373 524 L 1371 527 L 1365 522 L 1364 522 L 1354 512 L 1352 508 L 1352 506 L 1351 505 L 1351 502 L 1343 488 L 1343 486 Z"/>
<path d="M 1344 482 L 1371 530 L 1366 564 L 1344 526 L 1295 529 L 1349 580 L 1287 570 L 1361 596 L 1330 554 L 1353 549 L 1361 606 L 1319 600 L 1318 632 L 1266 619 L 1319 631 L 1331 681 L 1397 684 L 1519 763 L 1392 679 L 1411 600 L 1389 678 L 1401 615 L 1379 680 L 1336 669 L 1322 600 L 1405 606 L 1381 593 L 1415 580 L 1394 578 L 1446 574 L 1387 590 L 1451 577 L 1377 586 L 1385 561 L 1444 550 L 1403 540 L 1371 567 L 1420 492 L 1384 523 L 1364 607 L 1387 496 L 1377 514 Z"/>
<path d="M 544 482 L 478 483 L 474 484 L 477 486 L 476 490 L 459 490 L 473 491 L 473 493 L 463 496 L 435 497 L 466 497 L 484 489 L 497 488 L 490 487 L 487 485 L 488 484 L 544 484 Z"/>
<path d="M 126 480 L 127 480 L 129 482 L 129 531 L 127 533 L 126 533 L 124 531 L 124 482 Z"/>
<path d="M 125 479 L 123 481 L 123 531 L 125 534 L 129 534 L 130 533 L 130 481 L 129 479 Z"/>
<path d="M 1182 479 L 957 479 L 957 612 L 1024 613 L 958 611 L 960 481 L 1174 481 L 1182 485 Z"/>
<path d="M 398 475 L 415 474 L 419 476 L 418 479 L 420 480 L 432 516 L 432 523 L 415 483 L 416 479 L 409 478 L 399 479 L 400 484 L 396 495 L 390 506 L 384 522 L 382 522 Z"/>
<path d="M 152 476 L 152 477 L 192 477 L 193 478 L 239 478 L 239 477 L 190 476 L 189 475 L 156 475 L 155 476 Z"/>
<path d="M 830 514 L 829 551 L 690 552 L 711 554 L 710 569 L 699 570 L 711 572 L 704 636 L 725 635 L 712 634 L 713 570 L 715 606 L 741 604 L 741 563 L 713 569 L 713 553 L 749 554 L 749 633 L 804 629 L 796 627 L 797 552 L 831 553 L 830 599 L 828 562 L 802 562 L 802 601 L 830 601 L 830 625 L 819 627 L 833 627 L 832 570 L 851 569 L 852 625 L 873 635 L 713 650 L 683 639 L 688 534 L 713 526 L 716 550 L 716 525 L 740 524 L 716 516 L 779 473 Z"/>
<path d="M 1099 471 L 1099 472 L 1100 473 L 1103 473 L 1104 474 L 1111 474 L 1112 473 L 1114 473 L 1115 472 L 1120 472 L 1120 471 Z"/>
<path d="M 535 470 L 535 472 L 536 473 L 535 474 L 533 474 L 533 475 L 540 475 L 543 478 L 543 479 L 544 479 L 544 478 L 543 477 L 543 476 L 542 475 L 541 475 L 539 473 L 540 472 L 541 472 L 541 471 L 540 470 L 538 470 L 537 471 L 536 470 Z"/>
<path d="M 780 463 L 676 532 L 671 537 L 669 537 L 669 540 L 780 465 Z"/>
<path d="M 784 462 L 785 464 L 789 466 L 793 470 L 799 474 L 830 501 L 840 508 L 837 504 L 831 500 L 818 488 L 813 485 L 805 477 L 795 470 L 788 463 Z"/>
<path d="M 406 460 L 410 460 L 411 461 L 411 471 L 410 472 L 406 472 L 405 471 L 405 470 L 406 469 L 409 469 L 409 468 L 406 468 L 406 469 L 405 470 L 404 469 L 404 462 Z"/>
<path d="M 876 532 L 871 538 L 850 527 L 783 467 L 668 544 L 511 534 L 555 511 L 582 512 L 556 511 L 586 498 L 618 499 L 654 476 L 689 477 L 658 475 L 671 464 L 771 462 L 674 459 L 788 457 Z"/>
<path d="M 341 450 L 340 450 L 340 452 L 341 453 L 340 454 L 340 457 L 341 458 L 341 460 L 340 461 L 340 476 L 341 477 L 341 479 L 340 480 L 338 479 L 336 479 L 335 480 L 332 478 L 333 476 L 324 476 L 324 477 L 327 477 L 328 478 L 327 479 L 324 479 L 324 481 L 328 481 L 329 483 L 331 483 L 331 481 L 332 480 L 334 480 L 335 481 L 334 483 L 339 484 L 339 483 L 337 482 L 338 481 L 341 481 L 343 476 L 351 475 L 351 474 L 346 474 L 342 476 L 341 475 L 341 461 L 343 456 L 341 455 L 342 453 Z"/>
<path d="M 670 450 L 670 460 L 668 462 L 661 465 L 662 467 L 658 470 L 654 468 L 654 470 L 656 471 L 653 474 L 623 493 L 620 492 L 619 495 L 588 495 L 586 493 L 613 466 L 615 466 L 615 464 L 623 456 L 627 458 L 630 457 L 624 455 L 629 450 L 639 449 L 641 451 L 643 449 L 655 448 Z"/>
<path d="M 1259 470 L 1258 627 L 943 625 L 950 465 L 1149 465 L 1171 475 L 1152 472 L 1152 446 L 1199 445 L 1200 478 L 1174 472 L 1185 482 L 1245 482 L 1244 612 L 1044 613 L 1246 613 L 1246 480 L 1202 479 L 1201 466 Z"/>
<path d="M 401 650 L 684 762 L 986 683 L 1247 683 L 1001 678 L 1263 677 L 986 682 L 854 624 L 878 530 L 789 455 L 669 446 L 509 528 L 520 627 L 557 625 L 533 548 L 652 546 L 676 637 L 656 564 L 635 632 L 624 562 L 587 561 L 623 564 L 623 629 L 591 627 L 597 565 L 590 628 L 678 643 L 638 653 L 854 667 L 897 647 L 810 642 L 975 664 L 685 725 L 410 641 L 627 637 L 507 629 L 466 599 L 501 575 L 518 618 L 500 572 Z"/>
<path d="M 373 444 L 370 444 L 369 445 L 368 445 L 367 446 L 366 446 L 363 448 L 361 448 L 359 450 L 358 450 L 357 449 L 355 449 L 355 450 L 356 451 L 356 471 L 357 471 L 357 452 L 358 451 L 361 452 L 361 450 L 362 449 L 364 449 L 365 448 L 366 448 L 369 446 L 372 446 L 373 445 Z"/>
<path d="M 943 468 L 943 628 L 927 643 L 944 629 L 1260 629 L 1313 657 L 1295 679 L 1248 688 L 1288 678 L 1420 727 L 1350 754 L 1420 739 L 1342 764 L 1217 714 L 1345 762 L 1373 754 L 1214 705 L 1246 688 L 1213 714 L 1343 767 L 1426 742 L 1420 725 L 1299 682 L 1314 656 L 1260 628 L 1257 465 L 1153 443 L 1150 464 Z"/>
<path d="M 516 442 L 516 464 L 517 465 L 517 469 L 518 470 L 519 473 L 520 473 L 520 471 L 521 470 L 524 470 L 525 471 L 524 474 L 523 475 L 522 475 L 522 476 L 523 476 L 523 475 L 524 474 L 528 474 L 528 473 L 527 473 L 526 472 L 526 470 L 525 469 L 525 468 L 524 468 L 523 469 L 519 469 L 518 468 L 518 455 L 517 454 L 517 442 Z"/>
<path d="M 405 435 L 404 436 L 404 447 L 413 447 L 413 436 L 411 436 L 410 435 Z"/>
<path d="M 471 446 L 472 446 L 473 447 L 474 447 L 474 443 L 475 442 L 477 442 L 478 441 L 479 441 L 480 442 L 481 442 L 481 441 L 486 436 L 487 436 L 487 435 L 486 434 L 485 434 L 485 435 L 480 440 L 479 439 L 479 438 L 478 438 L 476 440 L 475 439 L 475 438 L 474 438 L 473 439 L 472 438 L 472 435 L 473 434 L 474 434 L 474 433 L 473 433 L 473 434 L 472 435 L 471 435 L 471 438 L 472 439 L 472 442 L 473 443 L 472 444 L 471 444 Z"/>
<path d="M 291 430 L 290 431 L 290 432 L 291 432 L 292 433 L 292 437 L 293 437 L 295 439 L 295 440 L 296 441 L 297 441 L 297 440 L 296 439 L 296 438 L 295 437 L 295 436 L 294 436 L 293 435 L 293 433 L 294 432 L 297 432 L 298 433 L 301 433 L 301 432 L 300 432 L 299 431 L 299 430 L 298 430 L 297 431 L 294 431 L 293 430 Z"/>
<path d="M 326 426 L 325 426 L 321 430 L 321 435 L 320 436 L 320 439 L 319 440 L 319 473 L 320 474 L 320 484 L 321 484 L 321 481 L 322 480 L 322 477 L 321 476 L 321 473 L 320 472 L 320 441 L 321 440 L 321 437 L 323 434 L 324 429 L 326 427 Z"/>
<path d="M 358 422 L 357 422 L 357 423 L 353 427 L 351 427 L 350 426 L 349 426 L 347 428 L 342 428 L 342 429 L 345 429 L 346 430 L 347 430 L 349 428 L 350 428 L 354 432 L 354 433 L 356 433 L 356 431 L 355 431 L 354 430 L 354 428 L 357 425 L 357 424 L 358 423 Z"/>
<path d="M 544 421 L 542 421 L 541 422 L 538 422 L 537 423 L 536 422 L 536 420 L 535 420 L 535 424 L 533 426 L 532 425 L 531 425 L 531 426 L 529 428 L 528 427 L 528 426 L 527 426 L 524 429 L 523 429 L 522 428 L 519 428 L 519 429 L 520 429 L 521 430 L 523 430 L 524 431 L 521 434 L 521 435 L 522 435 L 525 432 L 526 432 L 527 431 L 530 430 L 532 428 L 533 428 L 537 424 L 539 424 L 540 423 L 542 423 L 543 422 L 544 422 Z"/>
<path d="M 305 419 L 302 419 L 302 424 L 305 425 L 311 435 L 310 440 L 306 439 L 311 445 L 310 475 L 308 479 L 306 477 L 302 477 L 301 479 L 295 480 L 306 480 L 309 482 L 307 489 L 300 490 L 305 493 L 304 497 L 296 497 L 286 501 L 299 499 L 307 500 L 309 494 L 312 468 L 313 431 L 311 431 L 305 424 L 307 422 Z"/>
<path d="M 419 417 L 420 418 L 425 418 L 426 419 L 426 453 L 424 455 L 422 455 L 421 456 L 420 456 L 418 453 L 418 418 Z"/>
<path d="M 417 420 L 417 453 L 402 454 L 401 451 L 399 451 L 398 454 L 395 452 L 394 455 L 420 456 L 417 458 L 393 457 L 388 452 L 388 420 L 394 420 L 395 449 L 395 419 L 412 417 Z"/>
<path d="M 388 415 L 385 454 L 401 460 L 403 471 L 395 475 L 370 554 L 395 500 L 395 545 L 403 481 L 410 555 L 407 480 L 418 546 L 413 483 L 442 554 L 452 553 L 444 550 L 421 476 L 413 472 L 413 460 L 429 453 L 429 419 Z"/>
<path d="M 523 409 L 522 409 L 520 412 L 519 412 L 518 413 L 517 413 L 517 421 L 516 422 L 516 426 L 515 427 L 515 433 L 517 435 L 517 438 L 518 438 L 519 437 L 519 436 L 518 435 L 518 434 L 516 432 L 516 430 L 517 429 L 517 425 L 518 424 L 518 416 L 519 415 L 519 414 L 520 413 L 520 412 L 521 411 L 522 411 L 523 410 Z"/>
<path d="M 321 400 L 322 401 L 322 402 L 323 402 L 324 403 L 324 412 L 323 413 L 322 412 L 322 408 L 321 408 L 321 416 L 322 416 L 323 417 L 322 418 L 322 419 L 321 420 L 320 419 L 320 418 L 319 417 L 319 402 Z"/>
<path d="M 490 399 L 490 400 L 491 401 L 491 402 L 493 404 L 497 404 L 500 407 L 502 407 L 503 408 L 503 409 L 504 409 L 504 408 L 503 408 L 502 407 L 502 406 L 501 405 L 502 404 L 502 403 L 501 402 L 501 401 L 500 400 L 500 398 L 499 398 L 499 400 L 500 401 L 500 403 L 499 404 L 498 403 L 494 403 L 491 400 L 491 399 Z"/>
<path d="M 375 381 L 377 383 L 377 385 L 378 386 L 378 388 L 379 389 L 379 392 L 380 393 L 380 403 L 379 404 L 379 407 L 378 408 L 376 406 L 376 405 L 373 402 L 372 402 L 371 401 L 371 400 L 372 399 L 373 400 L 374 400 L 376 402 L 377 402 L 377 401 L 376 400 L 375 400 L 372 398 L 374 395 L 374 388 L 375 387 L 375 385 L 374 384 L 374 382 Z"/>
<path d="M 508 381 L 509 392 L 506 393 L 510 409 L 506 408 L 504 412 L 507 410 L 510 413 L 510 434 L 507 433 L 508 421 L 506 429 L 498 422 L 497 425 L 506 432 L 509 439 L 503 441 L 492 432 L 489 423 L 495 423 L 494 419 L 488 421 L 484 416 L 480 417 L 498 440 L 508 444 L 506 472 L 503 476 L 500 469 L 478 467 L 476 451 L 476 470 L 479 468 L 485 471 L 472 472 L 477 474 L 477 479 L 471 482 L 479 481 L 479 473 L 498 470 L 501 480 L 507 474 L 511 434 L 511 400 L 508 393 L 511 389 Z"/>
<path d="M 388 374 L 387 374 L 387 375 L 388 375 L 389 376 L 388 377 L 387 377 L 387 383 L 386 384 L 386 393 L 387 393 L 388 392 L 389 393 L 389 394 L 388 395 L 386 395 L 386 408 L 387 408 L 387 399 L 388 398 L 388 395 L 389 394 L 390 394 L 393 391 L 393 390 L 392 390 L 391 391 L 390 390 L 390 389 L 389 389 L 388 388 L 388 381 L 389 380 L 389 378 L 390 377 L 390 376 L 389 376 L 388 375 Z"/>
<path d="M 516 366 L 515 366 L 515 370 L 514 371 L 514 415 L 515 415 L 515 395 L 516 394 L 515 392 L 515 382 L 516 380 L 515 379 L 517 377 L 522 376 L 522 375 L 520 375 L 519 376 L 516 376 L 515 375 L 516 374 Z"/>
<path d="M 385 349 L 377 359 L 384 367 L 380 377 L 370 379 L 358 372 L 372 383 L 371 397 L 367 402 L 360 404 L 351 400 L 344 406 L 330 405 L 326 399 L 329 379 L 323 382 L 325 393 L 320 399 L 306 398 L 301 391 L 303 400 L 312 404 L 312 423 L 309 423 L 312 427 L 316 401 L 317 428 L 320 423 L 323 425 L 326 401 L 328 406 L 339 409 L 339 414 L 336 416 L 335 413 L 333 420 L 338 416 L 340 420 L 339 415 L 355 404 L 367 405 L 370 409 L 371 401 L 379 413 L 386 372 L 385 364 L 380 359 L 386 355 Z"/>
<path d="M 936 343 L 937 342 L 946 342 L 947 343 L 960 343 L 961 344 L 961 358 L 960 359 L 937 359 L 936 358 Z"/>
<path d="M 1030 341 L 1044 341 L 1045 342 L 1045 358 L 1044 359 L 1030 359 L 1029 358 L 1029 342 Z"/>
<path d="M 1009 342 L 1010 341 L 1027 341 L 1028 342 L 1028 358 L 1027 359 L 1010 359 L 1009 358 Z"/>
<path d="M 339 342 L 338 342 L 338 345 L 335 348 L 334 348 L 331 351 L 327 353 L 325 353 L 324 354 L 324 355 L 328 354 L 332 351 L 339 348 L 342 351 L 340 352 L 340 353 L 341 353 L 344 356 L 343 360 L 338 365 L 338 367 L 334 371 L 329 374 L 327 376 L 327 377 L 328 377 L 331 374 L 335 372 L 339 368 L 339 366 L 344 361 L 345 355 L 343 352 L 343 350 L 340 346 Z"/>
<path d="M 1062 342 L 1062 343 L 1118 343 L 1118 342 L 1089 342 L 1088 341 L 1069 341 L 1068 342 Z"/>
<path d="M 936 322 L 937 321 L 938 322 L 940 322 L 941 323 L 944 323 L 945 324 L 947 324 L 948 325 L 950 325 L 951 326 L 954 326 L 955 327 L 957 327 L 958 328 L 960 328 L 961 329 L 961 340 L 959 342 L 948 342 L 947 341 L 937 341 L 936 340 Z"/>
<path d="M 1028 317 L 1028 339 L 1027 340 L 1009 340 L 1008 341 L 1008 358 L 1007 359 L 963 359 L 962 358 L 963 357 L 963 329 L 964 328 L 994 323 L 1024 316 Z"/>
<path d="M 881 306 L 933 320 L 935 322 L 934 341 L 910 340 L 934 342 L 935 358 L 909 359 L 906 342 L 906 359 L 882 359 L 882 340 L 908 340 L 908 316 L 906 339 L 882 338 Z"/>
<path d="M 311 309 L 312 309 L 313 308 L 314 308 L 315 307 L 316 307 L 317 306 L 321 306 L 322 305 L 326 305 L 327 304 L 332 304 L 333 305 L 334 305 L 334 304 L 333 304 L 332 303 L 319 303 L 318 304 L 317 304 L 315 306 L 314 306 L 312 308 L 311 308 Z"/>
<path d="M 937 300 L 937 319 L 936 320 L 935 320 L 934 319 L 932 319 L 931 318 L 928 318 L 927 317 L 925 317 L 924 316 L 921 316 L 920 315 L 918 315 L 917 314 L 915 314 L 914 313 L 912 313 L 911 312 L 908 312 L 907 311 L 904 311 L 903 310 L 905 308 L 907 308 L 908 307 L 910 307 L 911 306 L 914 306 L 917 304 L 920 304 L 921 303 L 923 303 L 924 302 L 926 302 L 927 301 L 930 301 L 931 300 L 933 300 L 934 299 L 936 299 Z"/>
<path d="M 939 298 L 940 298 L 941 297 L 943 297 L 944 296 L 946 296 L 947 295 L 954 294 L 955 293 L 957 293 L 958 292 L 960 292 L 961 293 L 961 326 L 960 327 L 959 326 L 956 326 L 955 325 L 953 325 L 952 324 L 949 324 L 948 323 L 946 323 L 945 322 L 942 322 L 941 321 L 939 321 L 938 320 L 938 299 Z"/>
<path d="M 999 288 L 1045 304 L 1045 334 L 1044 335 L 1045 339 L 1044 340 L 1030 340 L 1029 339 L 1029 316 L 1033 315 L 1035 313 L 1031 314 L 1028 313 L 1028 301 L 1027 301 L 1027 311 L 1026 312 L 1001 303 L 998 301 L 998 289 Z"/>
<path d="M 963 276 L 964 275 L 997 287 L 997 300 L 992 301 L 1020 310 L 1027 314 L 963 327 L 962 293 L 966 292 L 990 300 L 988 298 L 963 291 Z"/>
<path d="M 961 276 L 961 290 L 960 291 L 946 294 L 900 309 L 882 303 L 902 295 L 924 288 L 927 286 L 938 283 L 941 281 L 959 275 Z"/>
<path d="M 360 279 L 355 291 L 371 277 L 385 286 L 384 296 L 410 290 L 413 315 L 426 314 L 434 326 L 420 363 L 402 368 L 403 358 L 390 372 L 401 369 L 404 378 L 394 386 L 407 392 L 405 405 L 408 369 L 432 354 L 453 354 L 458 366 L 467 360 L 479 377 L 476 419 L 454 426 L 459 432 L 446 442 L 449 477 L 467 473 L 449 471 L 447 444 L 472 428 L 483 393 L 504 391 L 485 392 L 453 345 L 462 332 L 476 333 L 474 310 L 497 308 L 504 318 L 502 294 L 519 288 L 529 300 L 543 300 L 522 287 L 502 292 L 497 307 L 471 311 L 471 329 L 458 334 L 451 352 L 429 354 L 436 327 L 416 310 L 415 292 L 388 289 L 377 276 Z"/>
<path d="M 832 359 L 1126 361 L 1047 359 L 1046 303 L 963 273 L 880 302 L 879 359 Z"/>
<path d="M 1117 271 L 1117 302 L 1118 303 L 1114 306 L 1100 301 L 1099 300 L 1099 292 L 1098 292 L 1098 299 L 1095 301 L 1078 302 L 1077 303 L 1065 303 L 1064 302 L 1070 288 L 1072 286 L 1077 286 L 1078 282 L 1096 275 L 1097 276 L 1097 280 L 1098 280 L 1098 275 L 1112 268 Z"/>
<path d="M 288 268 L 290 269 L 294 266 L 301 267 L 308 274 L 310 280 L 317 277 L 324 281 L 328 289 L 331 285 L 334 286 L 341 294 L 338 302 L 347 304 L 352 309 L 351 313 L 355 312 L 360 317 L 361 323 L 356 331 L 357 335 L 361 331 L 365 331 L 375 336 L 379 341 L 378 347 L 382 348 L 383 343 L 380 343 L 380 339 L 368 330 L 360 329 L 362 318 L 359 312 L 355 311 L 348 302 L 341 299 L 344 296 L 342 292 L 346 291 L 349 294 L 350 289 L 344 288 L 339 290 L 333 284 L 328 285 L 320 276 L 311 277 L 309 272 L 300 265 L 293 265 Z"/>
<path d="M 928 258 L 928 259 L 978 259 L 978 258 Z"/>
<path d="M 925 241 L 925 242 L 996 242 L 996 241 Z"/>
<path d="M 864 240 L 867 240 L 868 241 L 872 241 L 873 242 L 874 242 L 880 247 L 880 248 L 881 249 L 881 251 L 882 252 L 882 258 L 881 259 L 881 261 L 875 267 L 874 267 L 873 268 L 871 268 L 870 269 L 861 269 L 860 268 L 857 267 L 851 261 L 851 259 L 850 258 L 850 252 L 851 251 L 851 249 L 853 247 L 853 246 L 858 242 L 860 242 L 861 241 L 863 241 Z"/>
<path d="M 1033 268 L 1048 286 L 1037 272 L 1057 278 L 1051 274 L 1064 267 L 1049 274 L 1038 268 L 1073 248 L 1075 278 L 1076 248 L 1109 268 L 1099 273 L 1090 270 L 1096 274 L 1079 281 L 1059 278 L 1070 285 L 1062 302 L 1055 295 L 1060 306 L 1099 301 L 1112 306 L 1116 313 L 1124 311 L 1119 303 L 1118 270 L 1129 269 L 1128 264 L 1109 266 L 1079 249 L 1074 239 L 1071 248 Z"/>
<path d="M 854 242 L 851 245 L 848 251 L 848 258 L 849 259 L 849 261 L 850 263 L 855 268 L 859 270 L 862 270 L 863 271 L 870 271 L 871 270 L 873 270 L 877 268 L 881 265 L 884 259 L 884 251 L 883 250 L 883 248 L 878 242 L 874 240 L 872 240 L 871 239 L 860 239 Z"/>
<path d="M 251 239 L 250 692 L 149 733 L 148 542 L 148 737 L 251 693 Z"/>
<path d="M 1010 232 L 1011 231 L 1011 230 L 1012 229 L 1013 229 L 1014 228 L 1019 228 L 1021 230 L 1021 231 L 1022 232 L 1022 234 L 1018 238 L 1014 238 L 1010 234 Z"/>
<path d="M 1074 227 L 1073 228 L 1072 228 L 1070 230 L 1070 234 L 1072 236 L 1073 236 L 1074 237 L 1077 237 L 1078 236 L 1079 236 L 1081 234 L 1081 230 L 1078 227 Z"/>
<path d="M 1011 227 L 1009 229 L 1009 230 L 1008 231 L 1008 235 L 1009 236 L 1009 237 L 1011 239 L 1012 239 L 1013 240 L 1019 240 L 1020 239 L 1021 239 L 1023 237 L 1023 236 L 1024 235 L 1024 230 L 1021 227 L 1020 227 L 1019 226 L 1013 226 L 1012 227 Z"/>
<path d="M 273 224 L 280 226 L 280 701 L 273 706 Z"/>
<path d="M 234 217 L 258 229 L 259 693 L 259 227 Z"/>
<path d="M 796 201 L 1163 200 L 1164 390 L 797 391 Z"/>
<path d="M 253 198 L 253 205 L 255 200 L 575 200 L 577 476 L 577 198 Z"/>
<path d="M 793 199 L 794 393 L 1166 393 L 1166 198 Z"/>
<path d="M 154 194 L 155 196 L 169 201 L 185 209 L 242 233 L 238 230 L 229 227 L 202 214 L 195 212 L 188 208 Z"/>
<path d="M 148 191 L 149 477 Z"/>
<path d="M 148 178 L 148 189 L 149 189 L 149 181 L 150 180 L 232 217 L 220 210 Z"/>
<path d="M 137 157 L 270 221 L 271 297 L 270 711 L 138 777 Z"/>
<path d="M 135 157 L 133 778 L 122 777 L 119 158 Z"/>
<path d="M 549 223 L 273 223 L 117 157 L 117 731 L 5 786 L 100 742 L 24 790 L 115 744 L 118 766 L 6 832 L 288 712 L 272 711 L 282 525 L 372 522 L 283 521 L 282 227 L 547 226 L 549 492 Z"/>
<path d="M 109 63 L 190 112 L 190 173 L 192 112 L 1329 112 L 1330 510 L 1331 113 L 1430 64 L 1331 109 L 192 110 Z"/>
</g></svg>