<svg xmlns="http://www.w3.org/2000/svg" viewBox="0 0 1920 1200" role="img" aria-label="Soft abstract sun rays">
  <defs>
    <linearGradient id="bg" x1="0" y1="0" x2="0" y2="1">
      <stop offset="0%" stop-color="#f2efe7" />
      <stop offset="50%" stop-color="#ece9df" />
      <stop offset="100%" stop-color="#e6e3da" />
    </linearGradient>
    <radialGradient id="sunGlow" cx="50%" cy="18%" r="48%">
      <stop offset="0%" stop-color="#fffce8" stop-opacity="0.88" />
      <stop offset="45%" stop-color="#f3efdd" stop-opacity="0.54" />
      <stop offset="100%" stop-color="#e8e4d9" stop-opacity="0" />
    </radialGradient>
    <filter id="softBlur" x="-20%" y="-20%" width="140%" height="140%">
      <feGaussianBlur stdDeviation="9" />
    </filter>
  </defs>

  <rect width="1920" height="1200" fill="url(#bg)" />
  <ellipse cx="960" cy="230" rx="620" ry="340" fill="url(#sunGlow)" />

  <g filter="url(#softBlur)" opacity="0.68">
    <path d="M960 118 L620 1260 L782 1260 L1006 186 Z" fill="#f8f3df" opacity="0.86" />
    <path d="M960 118 L760 1260 L892 1260 L1018 206 Z" fill="#f0ebd8" opacity="0.86" />
    <path d="M960 118 L900 1260 L1010 1260 L1034 186 Z" fill="#ece8d9" opacity="0.92" />
    <path d="M960 118 L1020 1260 L1124 1260 L1056 192 Z" fill="#ece7dc" opacity="0.92" />
    <path d="M960 118 L1132 1260 L1248 1260 L1088 210 Z" fill="#e9e4da" opacity="0.9" />
    <path d="M960 118 L1262 1260 L1386 1260 L1120 208 Z" fill="#ebe6db" opacity="0.86" />
  </g>

  <g filter="url(#softBlur)" opacity="0.55">
    <path d="M350 0 L520 1200 L610 1200 L470 0 Z" fill="#daded9" />
    <path d="M540 0 L710 1200 L790 1200 L660 0 Z" fill="#d7ddd7" />
    <path d="M1280 0 L1170 1200 L1250 1200 L1370 0 Z" fill="#d9dfdc" />
    <path d="M1470 0 L1360 1200 L1455 1200 L1570 0 Z" fill="#d6dcdb" />
  </g>

  <g opacity="0.24">
    <rect x="0" y="0" width="1920" height="1200" fill="#f2efe5" />
  </g>
</svg>
