<svg xmlns="http://www.w3.org/2000/svg" viewBox="0 0 900 900" role="img" aria-label="Wireframe top-view city street map">
  <rect width="900" height="900" fill="#fff"/>
  <g fill="none" stroke="#000" stroke-width="2">
    <rect x="72" y="72" width="756" height="756"/>

    <path d="M108 152H792"/>
    <path d="M108 238H792"/>
    <path d="M108 324H792"/>
    <path d="M108 410H792"/>
    <path d="M108 496H792"/>
    <path d="M108 582H792"/>
    <path d="M108 668H792"/>
    <path d="M108 754H792"/>

    <path d="M152 108V792"/>
    <path d="M238 108V792"/>
    <path d="M324 108V792"/>
    <path d="M410 108V792"/>
    <path d="M496 108V792"/>
    <path d="M582 108V792"/>
    <path d="M668 108V792"/>
    <path d="M754 108V792"/>

    <path d="M108 176L792 610"/>
    <path d="M164 108L620 792"/>
    <path d="M108 734L690 108"/>

    <rect x="178" y="176" width="44" height="48"/>
    <rect x="268" y="170" width="68" height="54"/>
    <rect x="364" y="172" width="54" height="52"/>
    <rect x="456" y="168" width="72" height="56"/>
    <rect x="558" y="170" width="56" height="54"/>
    <rect x="650" y="168" width="74" height="56"/>

    <rect x="176" y="256" width="58" height="56"/>
    <rect x="264" y="256" width="44" height="56"/>
    <rect x="334" y="254" width="90" height="58"/>
    <rect x="454" y="256" width="58" height="56"/>
    <rect x="540" y="252" width="78" height="60"/>
    <rect x="648" y="254" width="72" height="58"/>

    <rect x="174" y="344" width="66" height="58"/>
    <rect x="270" y="342" width="54" height="60"/>
    <rect x="350" y="342" width="62" height="58"/>
    <rect x="440" y="340" width="86" height="62"/>
    <rect x="556" y="344" width="60" height="58"/>
    <rect x="648" y="342" width="66" height="58"/>

    <rect x="174" y="430" width="54" height="58"/>
    <rect x="254" y="430" width="80" height="58"/>
    <rect x="364" y="428" width="58" height="58"/>
    <rect x="450" y="428" width="62" height="60"/>
    <rect x="542" y="430" width="72" height="58"/>
    <rect x="644" y="428" width="72" height="60"/>

    <rect x="176" y="516" width="66" height="58"/>
    <rect x="270" y="516" width="56" height="58"/>
    <rect x="352" y="516" width="74" height="58"/>
    <rect x="456" y="514" width="54" height="60"/>
    <rect x="540" y="516" width="74" height="58"/>
    <rect x="646" y="514" width="68" height="60"/>

    <rect x="176" y="602" width="58" height="58"/>
    <rect x="264" y="602" width="64" height="58"/>
    <rect x="356" y="600" width="68" height="60"/>
    <rect x="454" y="602" width="58" height="58"/>
    <rect x="542" y="600" width="70" height="60"/>
    <rect x="642" y="602" width="72" height="58"/>

    <rect x="178" y="688" width="58" height="58"/>
    <rect x="268" y="688" width="64" height="58"/>
    <rect x="362" y="686" width="56" height="60"/>
    <rect x="448" y="688" width="64" height="58"/>
    <rect x="542" y="686" width="72" height="60"/>
    <rect x="644" y="688" width="68" height="58"/>

    <circle cx="500" cy="486" r="24"/>
    <path d="M500 462V510"/>
    <path d="M476 486H524"/>
  </g>
</svg>
