<svg xmlns="http://www.w3.org/2000/svg" viewBox="0 0 3000 680" role="img" aria-label="Detailed 360 interior panorama">
  <rect width="3000" height="680" fill="#fff"/>
  <g fill="none" stroke="#000" stroke-width="2">
    <path d="M0 468H3000"/>
    <path d="M0 512H3000"/>

    <path d="M0 182H3000"/>
    <path d="M0 226H3000"/>

    <path d="M74 468V238H264V468"/>
    <path d="M264 468V274H420V468"/>
    <path d="M420 468V212H626V468"/>
    <path d="M626 468V274H776V468"/>
    <path d="M776 468V208H982V468"/>

    <path d="M1080 468V238H1282V468"/>
    <path d="M1282 468V278H1432V468"/>
    <path d="M1432 468V212H1638V468"/>
    <path d="M1638 468V276H1788V468"/>

    <path d="M1884 468V234H2096V468"/>
    <path d="M2096 468V276H2244V468"/>
    <path d="M2244 468V210H2450V468"/>
    <path d="M2450 468V278H2604V468"/>
    <path d="M2604 468V236H2830V468"/>

    <path d="M126 284H212"/>
    <path d="M466 250H578"/>
    <path d="M822 248H934"/>
    <path d="M1142 282H1248"/>
    <path d="M1476 250H1588"/>
    <path d="M1948 280H2060"/>
    <path d="M2282 248H2388"/>
    <path d="M2668 286H2790"/>

    <path d="M86 320H252"/>
    <path d="M436 320H610"/>
    <path d="M790 320H968"/>
    <path d="M1100 320H1270"/>
    <path d="M1450 320H1620"/>
    <path d="M1918 320H2088"/>
    <path d="M2270 320H2440"/>
    <path d="M2644 320H2816"/>

    <path d="M168 512V560H324V512"/>
    <path d="M624 512V566H812V512"/>
    <path d="M1090 512V562H1282V512"/>
    <path d="M1570 512V562H1760V512"/>
    <path d="M2050 512V566H2236V512"/>
    <path d="M2528 512V560H2724V512"/>

    <path d="M0 586C174 560 346 622 522 590C700 558 878 620 1052 590C1228 560 1402 622 1580 590C1760 558 1936 620 2114 590C2290 558 2466 622 2642 590C2818 560 2918 604 3000 592"/>

    <path d="M360 468V384H402V468"/>
    <path d="M980 468V388H1022V468"/>
    <path d="M1700 468V386H1742V468"/>
    <path d="M2400 468V390H2442V468"/>

    <path d="M336 512L382 468"/>
    <path d="M958 512L1002 468"/>
    <path d="M1678 512L1722 468"/>
    <path d="M2378 512L2422 468"/>
  </g>
</svg>
